# xmcd
#
# Track frame offsets:
#	150
#	12331
#	28075
#	39758
#	54782
#	69655
#	81835
#	97002
#	115766
#	129660
#	145351
#	156663
#
# Disc length: 2359 seconds
#
# Revision: 4
# Processed by: cddbd v1.5.2PL0 Copyright (c) Steve Scherf et al.
# Submitted via: audiograbber 1.83.01
#
DISCID=a009350c
DTITLE=Liv Marit Wedvik - Then He Kissed Me
DYEAR=2003
DGENRE=Country
TTITLE0=Then He Kissed Me
TTITLE1=She Ain't Me
TTITLE2=Long Live Love
TTITLE3=Independence Day
TTITLE4=Clap Your Hand's
TTITLE5=When You Walk In The Room
TTITLE6=Don't Forget To Remember
TTITLE7=Tougher Than The Rest
TTITLE8=Cheaper Whiskey
TTITLE9=I Don't Feel That Way
TTITLE10=Where The Rivers Flows
TTITLE11=The Ballad Of Lucy Jordan
EXTD=
EXTT0=
EXTT1=
EXTT2=
EXTT3=
EXTT4=
EXTT5=
EXTT6=
EXTT7=
EXTT8=
EXTT9=
EXTT10=
EXTT11=
PLAYORDER=
